<?xml version="1.0" encoding="UTF-8" standalone="no"?>
<!-- Created with Inkscape (http://www.inkscape.org/) -->

<svg
   width="106.64347mm"
   height="106.57385mm"
   viewBox="0 0 106.64347 106.57385"
   version="1.1"
   id="svg1"
   xml:space="preserve"
   inkscape:version="1.4.3 (0d15f75, 2025-12-25)"
   sodipodi:docname="YN logo just black.svg"
   xmlns:inkscape="http://www.inkscape.org/namespaces/inkscape"
   xmlns:sodipodi="http://sodipodi.sourceforge.net/DTD/sodipodi-0.dtd"
   xmlns="http://www.w3.org/2000/svg"
   xmlns:svg="http://www.w3.org/2000/svg"><sodipodi:namedview
     id="namedview1"
     pagecolor="#505050"
     bordercolor="#eeeeee"
     borderopacity="1"
     inkscape:showpageshadow="0"
     inkscape:pageopacity="0"
     inkscape:pagecheckerboard="0"
     inkscape:deskcolor="#505050"
     inkscape:document-units="mm"
     inkscape:zoom="1.0396254"
     inkscape:cx="396.77752"
     inkscape:cy="561.25984"
     inkscape:window-width="3440"
     inkscape:window-height="1369"
     inkscape:window-x="-8"
     inkscape:window-y="-8"
     inkscape:window-maximized="1"
     inkscape:current-layer="layer1"><inkscape:page
       x="2.8171827e-21"
       y="0"
       width="106.64346"
       height="106.57385"
       id="page2"
       margin="0"
       bleed="0" /></sodipodi:namedview><defs
     id="defs1" /><g
     inkscape:label="Layer 1"
     inkscape:groupmode="layer"
     id="layer1"
     transform="translate(-56.011661,-85.902014)"><path
       style="fill:#000000"
       d="m 107.22883,192.43741 c -1.60779,-0.0624 -3.51165,-0.22733 -5.12233,-0.44382 -0.74482,-0.10011 -2.801565,-0.43493 -2.827325,-0.46026 -0.007,-0.007 0.29812,-0.025 0.67733,-0.041 3.557575,-0.14982 5.494305,-0.3337 8.288325,-0.78692 2.9394,-0.4768 4.44486,-0.43095 6.604,0.20114 2.77628,0.81276 4.45061,0.70139 6.985,-0.4646 0.45403,-0.20889 1.1684,-0.53737 1.5875,-0.72997 4.60013,-2.11397 6.96078,-2.85461 9.44812,-2.96428 0.50021,-0.022 0.50021,-0.022 -0.32664,0.39194 -7.43831,3.72426 -16.5764,5.63669 -25.31398,5.29776 z m -11.324165,-1.65942 c -1.49577,-0.38091 -3.49021,-1.00839 -5.12234,-1.61156 -0.93133,-0.34419 -0.93133,-0.34419 3.59834,-0.37057 2.49131,-0.0145 4.99639,-0.0477 5.56683,-0.0738 4.057055,-0.1856 5.641055,-0.33109 8.572505,-0.78738 2.59761,-0.40433 4.33322,-0.33613 6.41572,0.25211 2.6056,0.73599 4.4688,0.60059 6.98278,-0.50746 5.70441,-2.51424 7.97452,-3.22472 10.96433,-3.43154 0.75734,-0.0524 1.75621,0.13735 2.69658,0.51223 0.89897,0.35837 0.88361,0.28898 0.15608,0.70489 -1.40785,0.80482 -1.38695,0.79637 -1.79433,0.72609 -0.82677,-0.14263 -2.59778,0.0465 -4.27566,0.45668 -1.45252,0.35507 -3.93025,1.33836 -7.44852,2.95597 -2.89679,1.33187 -4.53457,1.48709 -7.19881,0.68226 -1.92245,-0.58074 -3.87314,-0.69721 -6.00461,-0.3585 -3.80546,0.60471 -5.67431,0.78087 -9.595235,0.90445 -2.71554,0.0856 -2.98218,0.0815 -3.51366,-0.0538 z m -7.96108,-2.75658 c -0.67283,-0.29075 -1.3807,-0.62058 -2.19628,-1.02333 -0.87955,-0.43434 -0.89466,-0.38576 0.18141,-0.58324 1.65371,-0.30347 2.50136,-0.36499 5.06084,-0.36733 6.80131,-0.006 11.086725,-0.12973 13.972375,-0.40279 0.69764,-0.066 0.76847,-0.0807 0.63254,-0.13098 -0.0441,-0.0163 -0.33489,-0.12997 -0.64626,-0.25258 -0.56613,-0.22293 -0.56613,-0.22293 -1.37584,-0.16397 -2.39733,0.17458 -4.656125,0.23462 -10.334705,0.27469 -5.26429,0.0371 -5.30358,0.0385 -6.5405,0.23436 -0.91042,0.14412 -2.43839,0.46634 -2.52124,0.53168 -0.0474,0.0374 -0.81905,-0.37603 -1.98142,-1.0614 -0.67149,-0.39593 -0.67149,-0.39593 -0.16933,-0.53822 1.61151,-0.45664 3.13285,-0.79915 4.46032,-1.00418 1.49761,-0.23132 1.67039,-0.23799 7.366,-0.28415 7.024025,-0.0569 6.589985,-0.0274 5.90296,-0.40103 -0.55287,-0.30063 -0.55287,-0.30063 -5.79967,-0.26525 -7.27305,0.049 -7.9242,0.12207 -12.23179,1.37192 -0.79651,0.23111 -3.68424,-0.95363 -3.25221,-1.33428 0.0192,-0.0169 0.25992,-0.0829 0.53496,-0.1467 0.27505,-0.0638 1.0561,-0.26677 1.73567,-0.45107 2.50576,-0.67958 4.00583,-1.0172 5.51125,-1.24043 1.63946,-0.24311 1.68755,-0.24546 5.69383,-0.27876 2.06057,-0.0171 3.7559,-0.0338 3.76738,-0.037 0.0115,-0.003 -0.19293,-0.14879 -0.45426,-0.32341 -0.47514,-0.3175 -0.47514,-0.3175 -2.92071,-0.31603 -5.32701,0.003 -6.82206,0.19655 -11.47395,1.48378 -2.8777,0.79629 -3.12897,0.82439 -3.67163,0.41059 -1.5971,-1.21788 -1.80781,-1.40611 -1.61623,-1.44388 1.65716,-0.32663 3.71678,-0.79151 6.31523,-1.42541 3.436,-0.83823 5.33281,-1.08891 8.37142,-1.10636 0.87895,-0.005 1.59808,-0.0224 1.59808,-0.0385 0,-1.05336 -4.74109,-0.80577 -10.26583,0.53609 -4.48442,1.08919 -6.78469,1.54824 -6.98414,1.3938 -0.34339,-0.2659 -2.06887,-1.84282 -2.04382,-1.86786 0.007,-0.008 0.40362,-0.073 0.88017,-0.14548 2.42272,-0.36842 4.85856,-0.83765 8.13474,-1.56704 2.31511,-0.51543 4.00511,-0.8032 5.57988,-0.95012 1.47492,-0.13761 1.35942,-0.0876 0.95552,-0.41396 -0.41803,-0.3378 -0.35942,-0.33011 -1.52641,-0.20035 -1.35873,0.15108 -3.19412,0.46779 -4.67844,0.80732 -3.07398,0.70315 -5.98807,1.25871 -8.763,1.67063 -1.24883,0.18538 -1.24883,0.18538 -1.94015,-0.52224 -1.11555,-1.14184 -1.3866,-1.44844 -1.28051,-1.44844 1.26864,0 7.48861,-0.96727 11.70849,-1.82079 1.14592,-0.23177 2.93025,-0.54331 3.53484,-0.61717 0.37553,-0.0459 0.37848,-0.0614 0.0645,-0.33895 -0.15552,-0.13746 -0.30569,-0.26284 -0.33374,-0.27863 -0.069,-0.0388 -1.96295,0.28351 -3.51956,0.59902 -4.0604,0.82301 -8.63515,1.52751 -11.28184,1.73738 -0.33761,0.0268 -0.65583,0.0654 -0.70717,0.0858 -0.10007,0.0398 -0.37231,-0.25484 -1.4488,-1.56799 -0.63948,-0.78006 -0.61987,-0.74782 -0.4421,-0.72706 1.097,0.12806 8.41718,-0.74652 12.88507,-1.53945 0.59373,-0.10537 1.46985,-0.25905 1.94694,-0.3415 1.00297,-0.17334 0.91351,-0.13516 0.85454,-0.36469 -0.0256,-0.0996 -0.0583,-0.24303 -0.0727,-0.31868 -0.0217,-0.11412 -0.0418,-0.13406 -0.11805,-0.11707 -0.0505,0.0113 -0.5491,0.0986 -1.1079,0.19406 -0.5588,0.0955 -1.50177,0.25786 -2.0955,0.36086 -4.08453,0.70861 -8.66275,1.25607 -11.93287,1.42692 -1.14941,0.0601 -0.91824,0.19399 -1.81214,-1.04989 -1.03748,-1.44367 -1.03447,-1.29113 -0.0255,-1.2914 3.50501,-9.4e-4 8.7549,-0.52825 15.36232,-1.54304 0.84058,-0.1291 1.55135,-0.23472 1.57948,-0.23472 0.0568,0 0.0215,-0.58348 -0.0393,-0.64966 -0.0181,-0.0197 -0.60162,0.0516 -1.29671,0.15838 -6.94394,1.06706 -11.91266,1.55379 -16.29214,1.59595 -0.71857,0.007 -0.61565,0.10796 -1.67263,-1.64205 -0.458088,-0.75844 -0.505274,-0.84705 -0.424454,-0.7971 0.06945,0.0429 3.693584,0.0281 4.786544,-0.0196 3.49785,-0.15257 7.41537,-0.51857 12.48704,-1.16663 2.26718,-0.2897 2.22308,-0.28237 2.21897,-0.36857 -0.002,-0.0408 -0.007,-0.16457 -0.0112,-0.27517 -0.0129,-0.33669 -0.004,-0.33334 -0.64879,-0.24824 -10.21015,1.34791 -19.025804,1.84929 -19.437507,1.10549 -0.224368,-0.40535 -1.086775,-2.06262 -1.086775,-2.08843 0,-0.0115 0.871538,-0.009 1.936752,0.006 4.69272,0.0653 10.23163,-0.26998 17.45192,-1.05626 1.63632,-0.1782 1.49078,-0.12784 1.42189,-0.49199 -0.0716,-0.37856 0.0264,-0.35946 -1.17991,-0.22992 -2.27465,0.24426 -2.73392,0.29023 -4.51765,0.45221 -3.00523,0.2729 -4.62084,0.38892 -7.76817,0.55786 -4.0968,0.21989 -7.694943,0.0635 -7.884631,-0.34263 -0.192803,-0.41282 -0.798147,-1.77548 -0.857047,-1.92925 -0.0323,-0.0843 -0.02258,-0.0845 2.343791,-0.0476 3.293717,0.0514 5.896977,-0.009 9.869227,-0.22872 3.15352,-0.17444 8.61966,-0.5822 8.68536,-0.64791 0.0278,-0.0278 -0.53932,-0.53952 -0.64072,-0.57808 -0.059,-0.0224 -0.65241,0.0104 -1.55125,0.0858 -3.17407,0.26626 -7.65657,0.53684 -10.13406,0.61174 -0.44238,0.0134 -0.94721,0.0344 -1.12183,0.0467 -0.52364,0.0369 -7.718678,0.0202 -7.756907,-0.018 -0.03027,-0.0303 -0.773984,-1.97741 -0.853732,-2.23518 -0.02794,-0.0903 -0.02794,-0.0903 4.767599,-0.11288 2.63754,-0.0124 5.31941,-0.0434 5.9597,-0.069 7.83636,-0.31231 7.77864,-0.30706 7.4898,-0.68027 -0.28793,-0.37203 -0.14327,-0.35358 -2.01885,-0.25748 -8.95549,0.45883 -16.40018,0.4794 -16.554135,0.0457 -0.07901,-0.22255 -0.643155,-2.0525 -0.643143,-2.08618 2e-6,-0.005 1.147764,-0.007 2.550583,-0.003 5.074915,0.0123 14.679085,-0.17086 14.679085,-0.2799 0,-0.60715 -0.27457,-0.64871 -3.66184,-0.55426 -11.774048,0.3283 -13.731583,0.23955 -13.950993,-0.63251 -0.44051,-1.75082 -0.845159,-1.55045 3.194046,-1.58163 5.521357,-0.0426 12.554277,-0.13809 12.587037,-0.17084 0.009,-0.009 -0.0562,-0.16073 -0.14393,-0.33808 -0.18582,-0.37552 0.23622,-0.34564 -3.97216,-0.28122 -3.52222,0.0539 -8.799323,0.10694 -10.642961,0.10694 -1.541295,0 -1.541295,0 -1.640595,-0.508 -0.141778,-0.72531 -0.3166,-1.76496 -0.299638,-1.78192 0.02661,-0.0266 7.973594,-0.14282 11.748974,-0.17181 2.89371,-0.0222 3.73334,-0.0402 3.71815,-0.0798 -0.0108,-0.0281 -0.0598,-0.18606 -0.10892,-0.35097 -0.0893,-0.29983 -0.0893,-0.29983 -1.15699,-0.28083 -0.58722,0.0105 -2.43928,0.0286 -4.11568,0.0404 -1.6764,0.0118 -4.44818,0.0492 -6.159505,0.0832 -1.711325,0.034 -3.32105,0.0651 -3.577167,0.0692 -0.465666,0.007 -0.465666,0.007 -0.537292,-0.49565 -0.108529,-0.76231 -0.215866,-1.75371 -0.192409,-1.77717 0.08834,-0.0883 6.076775,-0.22654 11.221863,-0.25897 3.84583,-0.0242 3.84583,-0.0242 3.82283,-0.13925 -0.0127,-0.0633 -0.0359,-0.21205 -0.0516,-0.33067 -0.0286,-0.21568 -0.0286,-0.21568 -0.73249,-0.23207 -0.86,-0.02 -5.37205,0.004 -6.56706,0.0343 -0.47731,0.0123 -1.696506,0.0413 -2.709331,0.0644 -2.409671,0.055 -4.438676,0.12352 -4.788962,0.16171 -0.323875,0.0353 -0.288894,0.15636 -0.38172,-1.32083 -0.06325,-1.00661 -0.09037,-0.93562 0.380397,-0.99599 0.937653,-0.12025 11.332836,-0.4132 11.478026,-0.32347 0.40046,0.2475 3.10165,-0.0218 3.11318,-0.31035 0.0134,-0.33618 0.0134,-0.33618 -0.8615,-0.36757 -2.59297,-0.093 -12.541301,0.14957 -13.795084,0.3364 -0.204877,0.0305 -0.378813,0.0502 -0.386525,0.0437 -0.03494,-0.0295 -0.05902,-2.30847 -0.02429,-2.29888 0.02107,0.006 0.209767,-0.0212 0.419317,-0.0599 0.549499,-0.10172 1.310085,-0.148 3.979333,-0.24215 4.620699,-0.16298 5.620439,-0.18097 7.958669,-0.14323 3.53534,0.0571 3.14382,0.0902 3.28527,-0.2778 0.16238,-0.42244 0.20536,-0.41835 -4.44944,-0.4232 -3.999597,-0.004 -9.830253,0.22265 -10.785585,0.41957 -0.424718,0.0875 -0.530431,-0.58185 -0.325615,-2.06188 0.04668,-0.33735 0.480603,-0.38566 5.459701,-0.60792 3.873549,-0.17291 9.139599,-0.14043 11.298659,0.0697 0.24966,0.0243 0.24966,0.0243 0.22585,-0.32304 -0.0272,-0.39665 -0.0451,-0.41829 -0.34851,-0.42059 -0.11642,-8.9e-4 -0.83079,-0.0297 -1.5875,-0.0641 -3.26547,-0.14833 -5.56618,-0.13309 -9.863666,0.0653 -3.731599,0.17228 -4.283925,0.21103 -4.816341,0.33788 -0.359814,0.0857 -0.34033,0.2379 -0.176143,-1.37573 0.045,-0.44227 0.08182,-0.82729 0.08182,-0.85562 0,-0.18263 1.302815,-0.29631 5.736166,-0.50051 3.934374,-0.18123 6.286514,-0.16976 9.623934,0.0469 0.56665,0.0368 1.03763,0.0595 1.04662,0.0506 0.0196,-0.0196 -0.05,-0.66576 -0.0743,-0.69011 -0.0243,-0.0243 -1.98196,-0.13813 -3.2456,-0.18868 -1.5407,-0.0616 -4.37521,-0.0522 -5.9748,0.0198 -4.264998,0.19203 -6.335153,0.33368 -6.881706,0.47085 -0.140998,0.0354 -0.136193,-0.0338 0.100314,-1.44375 0.181605,-1.08267 -0.02945,-0.97358 2.167053,-1.12013 5.701469,-0.3804 8.392369,-0.42389 11.810999,-0.19086 0.50059,0.0341 1.07209,0.0726 1.27,0.0855 0.19791,0.0129 0.40345,0.0326 0.45675,0.0436 0.0959,0.0199 0.0968,0.0161 0.0847,-0.35154 -0.0122,-0.37164 -0.0122,-0.37164 -0.60491,-0.42032 -2.8416,-0.23341 -5.80918,-0.2751 -8.636005,-0.1213 -3.406003,0.1853 -6.119112,0.37464 -6.217042,0.43386 -0.05063,0.0306 -0.0078,-0.20699 0.230972,-1.27988 0.273291,-1.22823 0.241666,-1.14141 0.419237,-1.15103 0.08149,-0.004 1.014942,-0.0659 2.074333,-0.1367 5.679495,-0.37939 8.147625,-0.39349 11.781295,-0.0673 0.39112,0.0351 0.74831,0.0638 0.79375,0.0638 0.27283,0 0.0918,-0.70703 -0.18839,-0.73574 -2.80567,-0.28745 -6.2559,-0.34529 -9.338655,-0.15656 -2.252561,0.1379 -4.888616,0.32556 -5.043915,0.35906 -0.07934,0.0171 7.9e-5,-0.31593 0.395265,-1.65751 0.164431,-0.55821 0.231341,-0.73025 0.284008,-0.73025 0.03789,0 0.535379,-0.0378 1.105521,-0.0839 5.698696,-0.46142 7.992906,-0.47351 12.127956,-0.0639 0.98071,0.0971 0.89116,0.12177 0.94804,-0.26069 0.0265,-0.17812 0.0389,-0.33308 0.0277,-0.34434 -0.0378,-0.0378 -1.49802,-0.18586 -2.80613,-0.28455 -2.78344,-0.20999 -4.57919,-0.17311 -9.443823,0.19394 -2.057097,0.15522 -1.829268,0.2294 -1.579416,-0.51422 0.456008,-1.35719 0.606188,-1.73325 0.700023,-1.75293 0.198526,-0.0416 3.686318,-0.28695 5.189776,-0.36504 2.05676,-0.10683 5.65505,0.0921 8.17446,0.45195 0.19247,0.0275 0.49647,-0.62075 0.31984,-0.68202 -0.083,-0.0288 -1.82133,-0.22398 -2.7793,-0.31206 -3.14095,-0.2888 -4.95335,-0.27065 -9.55206,0.0957 -1.316335,0.10485 -1.220685,0.23533 -0.712498,-0.97196 0.653434,-1.55234 0.13154,-1.33953 3.935728,-1.60484 2.39402,-0.16696 5.39175,-0.001 8.90556,0.4918 0.49751,0.0698 0.90839,0.12128 0.91307,0.11431 0.37335,-0.55566 0.2935,-0.65539 -0.63547,-0.79371 -4.55198,-0.67777 -7.10138,-0.74586 -11.842038,-0.31627 -0.179092,0.0162 -0.325622,0.0151 -0.325622,-0.003 0,-0.0449 1.095497,-2.22806 1.167352,-2.32633 0.135818,-0.18574 3.650548,-0.33955 5.478978,-0.23977 2.02271,0.11039 3.72699,0.3118 6.31471,0.74625 0.48118,0.0808 0.9048,0.14688 0.94138,0.14688 0.0639,0 0.39149,-0.5792 0.35069,-0.62 -0.1301,-0.1301 -4.30336,-0.73598 -6.42144,-0.93227 -1.53062,-0.14185 -5.917678,-0.0708 -6.194583,0.10037 -0.06498,0.0402 0.2009,-0.43503 0.848613,-1.51665 0.66512,-1.1107 0.43558,-1.0131 2.38263,-1.01304 2.85815,8e-5 5.99251,0.38692 9.94568,1.22749 0.47856,0.10176 0.61884,0.11842 0.6465,0.0768 0.16631,-0.25031 0.33547,-0.54848 0.31997,-0.56398 -0.0104,-0.0105 -0.51257,-0.12516 -1.11582,-0.25492 -3.17294,-0.68251 -6.09041,-1.10462 -8.16649,-1.18156 -1.34049,-0.0497 -1.54452,-0.0521 -2.23112,-0.0265 -0.70712,0.0264 -0.70712,0.0264 -0.63923,-0.0794 1.42574,-2.22269 1.47437,-2.26855 2.3689,-2.23416 2.80727,0.10793 6.31056,0.67425 10.06878,1.62766 1.23989,0.31455 1.10577,0.31307 1.34408,0.0148 0.24483,-0.3064 0.24502,-0.3099 0.0212,-0.37231 -3.934,-1.09681 -9.03084,-1.99475 -11.34533,-1.99876 -0.40337,-7e-4 -0.41453,0.0566 0.12273,-0.6305 1.25428,-1.60416 1.22576,-1.57658 1.60235,-1.54977 2.26183,0.16105 6.5523,1.07467 10.26348,2.18551 1.0827,0.32408 1.61102,0.26591 1.61102,-0.17738 0,-0.0143 -0.50006,-0.18091 -1.11125,-0.37018 -3.66067,-1.13359 -7.11127,-1.92286 -10.0773,-2.30501 -0.41471,-0.0534 -0.41471,-0.0534 0.12305,-0.64592 1.40352,-1.54635 1.24036,-1.44394 2.05962,-1.29273 2.51598,0.46436 5.45157,1.25837 8.83943,2.39087 1.01441,0.3391 1.8683,0.61654 1.89754,0.61654 0.0881,0 0.60926,-0.46379 0.54707,-0.48689 -0.0306,-0.0114 -0.34141,-0.11412 -0.69066,-0.22834 -0.34925,-0.11423 -1.19697,-0.40137 -1.88383,-0.63809 -2.72014,-0.93751 -5.40174,-1.69151 -7.83167,-2.2021 -0.45402,-0.0954 -0.86104,-0.18774 -0.90448,-0.20518 -0.0775,-0.0311 1.62315,-1.703215 1.82899,-1.798325 0.2148,-0.0993 4.05652,1.033755 6.58966,1.943445 4.16629,1.49617 4.89576,1.67922 5.37662,1.34922 0.19735,-0.13543 0.3542,-0.25086 0.34856,-0.2565 -0.006,-0.006 -0.27694,-0.0712 -0.60288,-0.14559 -1.24186,-0.28358 -2.46482,-0.66917 -4.4873,-1.4148 -2.15763,-0.79546 -4.28818,-1.484115 -5.91586,-1.912185 -0.3433,-0.0903 -0.62344,-0.17368 -0.62252,-0.18533 0.002,-0.0238 1.15801,-0.99716 1.658,-1.39582 0.38735,-0.30886 1.42497,-0.005 5.81171,1.70474 3.63091,1.414735 6.74343,1.888815 8.11654,1.236245 0.78793,-0.37446 0.8066,-0.35826 -0.38012,-0.32981 -2.59197,0.0621 -4.60447,-0.381555 -8.39258,-1.850295 -1.65311,-0.64095 -2.73147,-1.03677 -3.58775,-1.31693 -0.67128,-0.21963 -0.66065,-0.16179 -0.10584,-0.57604 1.70873,-1.27582 1.22957,-1.25031 3.79942,-0.20222 2.5263,1.03033 4.08848,1.4943 6.01133,1.7854 0.62721,0.095 2.3646,0.10021 6.05367,0.0183 3.34455,-0.0742 3.21447,-0.0617 4.40267,-0.42363 1.08144,-0.32939 0.56597,-0.36531 -3.70417,-0.25806 -3.78031,0.095 -5.2915,0.11566 -5.842,0.08 -1.87522,-0.12126 -3.94254,-0.66805 -6.477,-1.71311 -0.54716,-0.22562 -1.22164,-0.50286 -1.49886,-0.61609 -0.27721,-0.11323 -0.51114,-0.21299 -0.51983,-0.22168 -0.0164,-0.0164 0.84165,-0.58514 1.56806,-1.03937 0.4172,-0.26087 0.4172,-0.26087 0.91017,-0.0507 1.72292,0.73444 3.6114,1.27801 5.26315,1.51494 0.60333,0.0865 2.27553,0.0909 5.05114,0.0133 5.94546,-0.1663 9.664895,-0.0793 12.765555,0.29868 0.69863,0.0852 0.702,0.0852 1.22767,0.002 0.28991,-0.0457 0.71762,-0.10648 0.95045,-0.13497 0.23283,-0.0285 0.438,-0.0645 0.45592,-0.08 0.044,-0.0381 -1.64668,-0.31405 -2.72075,-0.44413 -3.11529,-0.37729 -5.892235,-0.45503 -11.578175,-0.32413 -4.66676,0.10743 -5.2054,0.10976 -5.92693,0.0257 -1.43436,-0.1672 -3.13593,-0.61892 -4.79312,-1.27244 -0.58823,-0.23197 -0.6586,-0.15624 0.97728,-1.0516 0.7559,-0.41372 0.7559,-0.41372 1.37584,-0.23865 1.97461,0.55765 2.68717,0.61137 6.77943,0.51113 0.94298,-0.0231 2.5527,-0.0628 3.57717,-0.0882 4.853025,-0.12035 8.586715,0.12996 12.281005,0.82332 2.93406,0.55068 4.47113,0.418 6.83652,-0.59012 2.39321,-1.01997 4.1735,-0.83546 6.76931,0.70156 5.55837,3.29122 8.41737,4.44411 11.02074,4.44411 1.4423,0 3.32457,-1.07487 5.42991,-3.10073 0.46352,-0.44602 0.34409,-0.44599 1.02001,-1.9e-4 0.67736,0.44675 0.69773,0.29179 -0.14678,1.11638 -2.94784,2.87831 -4.8981,3.97104 -6.79697,3.80832 -2.06948,-0.17734 -3.64429,-0.66852 -6.13646,-1.91396 -1.59574,-0.79745 -2.6525,-1.36782 -4.78044,-2.58014 -2.12679,-1.21167 -4.09439,-1.34195 -6.39654,-0.42353 -0.4002,0.15965 -0.76574,0.30546 -0.8123,0.32402 -0.36853,0.14685 1.22573,0.14819 1.74206,0.002 2.01986,-0.57398 3.56777,-0.31258 5.8796,0.99291 9.8273,5.549455 12.13486,5.567605 17.63971,0.13871 0.89973,-0.88731 0.71184,-0.86258 1.59784,-0.2103 0.40088,0.29513 0.40088,0.29513 -0.1905,0.86129 -5.00115,4.787925 -6.46513,5.589405 -9.41788,5.155995 -0.88193,-0.12945 -0.8262,-0.15244 -0.46567,0.19209 0.42758,0.4086 0.43009,0.40992 0.889,0.4679 2.51971,0.31837 4.3015,-0.67116 8.69054,-4.826365 0.91486,-0.86613 1.32066,-1.22411 1.36138,-1.20099 0.10647,0.0605 1.24818,0.96391 1.24964,0.98886 7.9e-4,0.0135 -0.0891,0.0895 -0.19964,0.16893 -0.47911,0.34396 -1.15115,0.9167 -2.2464,1.91448 -2.36085,2.150725 -3.20856,2.843805 -4.40674,3.602885 -1.12082,0.71007 -2.46181,1.25296 -3.09496,1.25296 -0.0933,0 -0.0665,0.0495 0.24801,0.45852 0.20783,0.27027 1.87767,-0.41811 3.2665,-1.34658 1.14099,-0.76278 1.89617,-1.38347 4.15943,-3.41861 1.39737,-1.256525 2.66192,-2.252525 2.79431,-2.200905 0.20083,0.0783 1.58451,1.34291 1.46937,1.34291 -0.44528,0 -2.50907,1.385345 -4.06277,2.727185 -3.1254,2.69921 -4.52482,3.71564 -5.99017,4.35076 -0.52675,0.22831 -0.50579,0.19989 -0.34523,0.46797 0.30311,0.50605 2.44184,-0.81859 5.48455,-3.39689 2.424,-2.05403 3.07826,-2.53193 4.34508,-3.17387 0.87363,-0.44269 1.16292,-0.511645 1.38456,-0.33003 0.62249,0.51008 2.93216,2.90847 4.04592,4.20134 0.58433,0.6783 0.5884,0.68995 0.15425,0.44154 -0.66761,-0.38198 -1.10949,-0.83593 -1.63346,-1.67811 -1.15284,-1.85298 -3.50526,-1.29459 -7.255,1.72212 -2.14879,1.72871 -2.63367,2.10609 -3.42008,2.66175 -0.48081,0.33974 -1.27693,0.8375 -1.73968,1.08771 -0.20061,0.10846 -0.36474,0.20458 -0.36474,0.21359 0,0.28222 0.24599,0.46783 0.47009,0.3547 1.04571,-0.52787 2.37277,-1.4746 4.86391,-3.4699 3.9054,-3.12808 6.25903,-3.72219 7.40317,-1.86875 0.64982,1.05267 1.53708,1.75627 2.54516,2.01832 0.31623,0.0822 0.22289,-0.0181 1.25648,1.35007 0.64265,0.85066 0.64265,0.85066 0.23283,0.86434 -1.65046,0.0551 -3.02416,-0.64879 -3.90965,-2.00335 -1.24067,-1.89787 -3.54047,-1.34223 -7.77318,1.87803 -1.9342,1.47154 -3.03979,2.24806 -3.82982,2.68987 -0.15693,0.0877 -0.28533,0.1776 -0.28533,0.19966 0,0.0578 0.20834,0.46061 0.23826,0.46061 0.1749,0 1.87978,-1.16913 3.89526,-2.67119 4.22219,-3.14665 6.4527,-3.71552 7.6445,-1.94965 0.97985,1.45182 2.10506,2.02477 4.05465,2.06461 0.84536,0.0173 2.66925,1.80888 1.96192,1.92719 -2.76258,0.46209 -4.72396,-0.13298 -5.90298,-1.79091 -1.24802,-1.75497 -3.53326,-1.20815 -7.89111,1.88818 -0.58208,0.41358 -1.31961,0.92626 -1.63895,1.13929 -0.31934,0.21302 -0.57933,0.39684 -0.57777,0.40848 0.0764,0.56915 0.35561,0.44491 2.73242,-1.21576 3.84388,-2.68571 6.12293,-3.15621 7.33728,-1.51474 1.28111,1.73171 2.81676,2.1397 6.4113,1.70336 0.0656,-0.008 0.17456,0.14433 0.52916,0.7396 0.61906,1.03919 0.68513,1.16221 0.62496,1.16372 -0.0283,7.1e-4 -0.3562,0.0416 -0.72873,0.0909 -3.86156,0.51104 -5.45647,0.14385 -6.77504,-1.55978 -0.95284,-1.2311 -2.53628,-1.1979 -5.1473,0.10793 -0.73757,0.36887 -3.21763,1.8979 -3.50212,2.15916 -0.0185,0.017 0.2461,0.48458 0.27421,0.48458 0.011,0 0.443,-0.27362 0.95997,-0.60804 3.7439,-2.42189 6.21196,-2.9598 7.25877,-1.58203 1.41453,1.86174 3.36606,2.25315 7.74568,1.5535 0.34035,-0.0544 0.25476,-0.15308 0.81396,0.93881 0.53898,1.05238 0.6573,0.90778 -0.92963,1.13605 -4.42417,0.63637 -6.0131,0.32115 -7.6094,-1.50962 -1.05544,-1.21046 -3.92196,-0.63245 -7.1314,1.43799 -0.75354,0.48611 -0.34809,0.89613 0.42974,0.4346 3.13488,-1.86013 5.72807,-2.31267 6.68291,-1.16626 1.53457,1.84245 3.35947,2.13281 8.48998,1.35084 0.46236,-0.0705 0.84523,-0.12225 0.85082,-0.11507 0.0183,0.0235 0.47297,1.01934 0.65908,1.44349 0.22354,0.50946 0.2991,0.45385 -0.8689,0.63948 -5.32875,0.8469 -7.30228,0.63171 -8.89,-0.96931 -0.86191,-0.86914 -1.71255,-1.00213 -3.47133,-0.54269 -0.91289,0.23846 -3.09906,1.1646 -3.54614,1.50226 -0.0742,0.056 -0.0358,0.49757 0.0519,0.59703 0.0158,0.0179 0.36076,-0.12754 0.76662,-0.32318 3.16677,-1.52653 5.03385,-1.7146 6.08482,-0.61292 1.57957,1.65579 3.88506,1.88348 9.55445,0.9436 0.34925,-0.0579 0.66993,-0.10964 0.71263,-0.11498 0.0866,-0.0108 0.10515,0.0293 0.56073,1.2128 0.15128,0.39299 0.26955,0.71983 0.26284,0.72632 -0.0469,0.0454 -3.06973,0.48285 -4.05504,0.58685 -3.94328,0.41623 -5.56167,0.15304 -6.88016,-1.11887 -1.10409,-1.06509 -2.82387,-0.96863 -5.86676,0.32906 -0.77858,0.33203 -0.77858,0.33203 -0.76422,0.62658 0.0189,0.38815 0.0191,0.38822 0.45543,0.19635 3.04041,-1.3368 5.00222,-1.50812 6.04557,-0.52792 0.89642,0.84217 1.79648,1.19555 3.37849,1.32645 1.22167,0.10109 4.36379,-0.17609 6.98689,-0.61635 0.48331,-0.0811 0.8967,-0.14749 0.91864,-0.14749 0.043,0 0.69586,1.94471 0.66364,1.97693 -0.0463,0.0463 -2.9461,0.46735 -4.15435,0.60317 -4.46274,0.50168 -6.35207,0.26088 -7.72106,-0.98407 -0.6654,-0.6051 -1.69029,-0.73854 -3.20094,-0.41676 -1.35807,0.28927 -3.15366,0.91797 -3.15407,1.10435 -1.3e-4,0.0595 -0.02,0.17938 -0.0442,0.26635 -0.0785,0.28278 -0.005,0.34778 0.26759,0.23497 2.90272,-1.20339 5.07948,-1.36412 6.14459,-0.45371 0.9955,0.8509 2.54033,1.25464 4.44837,1.16256 2.31183,-0.11157 6.31481,-0.56117 7.53962,-0.84682 0.0788,-0.0184 0.0995,0.0155 0.18161,0.29814 0.14342,0.49359 0.46969,1.72663 0.45882,1.73398 -0.0105,0.007 -0.41632,0.0643 -2.27455,0.32026 -6.06199,0.83517 -8.78462,0.7048 -10.26583,-0.49156 -0.94707,-0.76494 -2.53879,-0.75748 -5.07529,0.0238 -0.65714,0.2024 -0.59974,0.15339 -0.5353,0.45704 0.0829,0.39048 0.0401,0.38009 0.74859,0.18196 2.4837,-0.6946 3.82738,-0.70144 4.74206,-0.0241 0.87211,0.64579 1.75944,0.9272 3.27377,1.03825 1.43827,0.10547 5.11878,-0.19326 8.42136,-0.68353 0.61537,-0.0913 1.12335,-0.16157 1.12885,-0.15605 0.0123,0.0123 0.38293,1.68566 0.42122,1.90174 0.0334,0.18865 0.23358,0.14378 -1.75876,0.39428 -7.10599,0.89344 -9.66203,0.82639 -11.36778,-0.29823 -0.69685,-0.45944 -1.31325,-0.56428 -2.58428,-0.43954 -0.73677,0.0723 -2.63385,0.47283 -2.72703,0.57575 -0.0282,0.0311 -0.0988,0.69195 -0.0738,0.6907 0.006,-2.8e-4 0.11482,-0.029 0.24288,-0.0639 2.4918,-0.67851 4.13031,-0.69868 5.12165,-0.063 0.85869,0.55059 1.80894,0.79328 3.40852,0.87052 1.39803,0.0675 5.18275,-0.22018 8.382,-0.63715 1.71302,-0.22326 1.50054,-0.30464 1.65774,0.6349 0.23074,1.37917 0.23852,1.27569 -0.0985,1.31003 -0.15911,0.0162 -1.05129,0.11331 -1.98263,0.21576 -6.87983,0.75682 -9.39606,0.71421 -11.21833,-0.18995 -1.11377,-0.55262 -2.02377,-0.59872 -4.14867,-0.21019 -0.749,0.13696 -1.77399,0.38053 -1.82563,0.43384 -0.0657,0.0678 -0.27243,0.70534 -0.22874,0.70534 0.0194,0 0.40387,-0.0852 0.85434,-0.18937 2.69719,-0.62361 4.26262,-0.64724 5.24421,-0.0791 1.55585,0.90045 4.90872,0.9402 12.02132,0.14253 1.86879,-0.20958 1.67597,-0.21979 1.70941,0.0906 0.13716,1.27326 0.19034,1.83277 0.17558,1.84753 -0.01,0.01 -0.25185,0.0346 -0.53843,0.0558 -0.28658,0.0211 -0.98778,0.0853 -1.55822,0.14261 -6.92535,0.69599 -10.03969,0.66086 -11.77639,-0.13282 -1.16558,-0.53267 -4.28846,-0.31019 -7.10918,0.50649 -0.16411,0.0475 -0.61793,0.62231 -0.6285,0.79603 -8.8e-4,0.0145 0.26986,-0.0393 0.60165,-0.11964 3.43164,-0.83053 6.01621,-1.02456 7.0066,-0.52601 1.57095,0.79079 4.67375,0.82402 12.2813,0.13152 1.85482,-0.16884 1.77236,-0.1713 1.80209,0.0539 0.0204,0.15446 0.10806,1.65814 0.10833,1.8581 8e-5,0.0581 -0.0711,0.0742 -0.43382,0.0978 -0.23865,0.0156 -1.00542,0.0745 -1.70392,0.13092 -7.17223,0.57966 -10.28802,0.55658 -11.9586,-0.0886 -1.06484,-0.41124 -3.32773,-0.28136 -6.80565,0.39063 -0.90827,0.17549 -0.85315,0.13778 -0.76427,0.52287 0.0652,0.28265 0.0596,0.28151 0.74354,0.15165 2.54379,-0.48302 5.25384,-0.7196 6.17964,-0.53946 0.14519,0.0282 0.45952,0.11579 0.6985,0.19453 1.07304,0.35356 1.729,0.42376 3.94818,0.4225 2.13836,-0.001 3.84153,-0.0801 7.76384,-0.35962 2.30038,-0.16394 2.31427,-0.16389 2.34853,0.007 0.20306,1.01527 0.007,1.97738 -0.40746,2.00239 -0.23865,0.0144 -1.04351,0.0634 -1.78858,0.10889 -7.0675,0.43161 -10.25703,0.42582 -11.83597,-0.0215 -1.10415,-0.31281 -3.3003,-0.22209 -6.80128,0.28093 -0.39211,0.0563 -0.37756,0.0344 -0.29163,0.43915 0.0445,0.20959 0.0682,0.25262 0.13574,0.24611 0.045,-0.004 0.47233,-0.0562 0.94964,-0.11529 2.83314,-0.35058 4.98104,-0.40919 6.01133,-0.16405 1.73095,0.41186 4.22442,0.41462 11.811,0.013 0.87313,-0.0462 1.72825,-0.0891 1.90028,-0.0954 0.34869,-0.0127 0.3243,-0.18206 0.2312,1.60514 -0.0313,0.60153 0.16245,0.53202 -1.68698,0.60509 -8.08516,0.31941 -10.80281,0.32896 -12.2555,0.043 -0.8867,-0.17452 -3.04931,-0.12335 -6.06281,0.14345 -0.68603,0.0607 -0.64558,0.0341 -0.59929,0.39461 0.0429,0.33421 -0.009,0.32741 1.60327,0.208 2.3173,-0.17158 4.27839,-0.19156 5.1319,-0.0523 1.37781,0.22482 4.39971,0.22569 10.27743,0.003 3.47201,-0.13157 3.49258,-0.13166 3.49196,-0.0154 -6.2e-4,0.11745 -0.15529,1.62542 -0.1931,1.88278 -0.0253,0.17212 -0.0253,0.17212 -2.21241,0.22291 -5.57702,0.12954 -6.58721,0.14203 -8.98161,0.11107 -4.68314,-0.0605 -8.70323,-0.0143 -8.80948,0.10135 -0.31353,0.34123 0.0639,0.65242 0.7607,0.62712 2.88764,-0.10486 4.30174,-0.12176 5.75114,-0.0687 1.89467,0.0693 6.18487,0.0268 12.21419,-0.12103 1.17473,-0.0288 1.17473,-0.0288 1.1535,0.0982 -0.0117,0.0699 -0.0674,0.42228 -0.12382,0.78317 -0.22237,1.42218 0.59389,1.24584 -6.05097,1.30722 -3.21627,0.0297 -5.90491,0.0611 -5.97476,0.0698 -0.0699,0.009 -1.05093,0.027 -2.18017,0.0407 -1.12924,0.0137 -2.31034,0.0328 -2.62467,0.0425 -0.31432,0.01 -1.08108,0.0185 -1.70391,0.0195 -1.13242,0.002 -1.13242,0.002 -1.13242,0.34054 0,0.36474 2.192,0.45788 6.45583,0.27433 1.72733,-0.0744 6.69271,-0.1446 10.33549,-0.14621 2.83,-10e-4 2.60764,-0.16713 2.19309,1.63617 -0.10876,0.47311 -0.10876,0.47311 -5.45084,0.49146 -5.53156,0.019 -5.85654,0.0284 -7.2259,0.20919 -0.79424,0.10486 -3.67526,0.12491 -5.52323,0.0384 -0.51154,-0.0239 -0.93377,-0.0398 -0.9383,-0.0352 -0.014,0.0141 -0.0964,0.64002 -0.0857,0.65073 0.13711,0.13711 5.74907,0.15829 6.6742,0.0252 1.59621,-0.22965 3.42136,-0.28283 8.40316,-0.24485 2.11879,0.0162 3.85675,0.0336 3.86213,0.0389 0.008,0.008 -0.20822,0.82896 -0.4858,1.84149 -0.0743,0.27113 -0.0743,0.27113 -1.23849,0.24336 -5.81955,-0.13882 -8.91043,-0.0637 -10.37167,0.25199 -0.26776,0.0579 -0.58208,0.1236 -0.6985,0.14611 -0.66799,0.12912 -2.99168,0.0894 -5.30404,-0.0906 -1.35332,-0.10537 -1.23571,-0.12545 -1.32445,0.22617 -0.0874,0.3463 -0.15394,0.30716 0.66061,0.38856 3.25802,0.32557 5.27908,0.34654 6.45471,0.067 1.27687,-0.30364 1.91629,-0.34774 5.22817,-0.36051 2.53337,-0.01 6.23589,0.0426 6.28333,0.0888 0.0197,0.0192 -0.61269,1.95297 -0.66631,2.03751 -0.0261,0.0412 -0.25496,0.0418 -1.08939,0.003 -4.31937,-0.20119 -8.45689,-0.035 -9.69719,0.38945 -1.17621,0.40253 -3.76307,0.33516 -7.23411,-0.18841 -0.37253,-0.0562 -0.6884,-0.0892 -0.70194,-0.0733 -0.0672,0.0787 -0.24222,0.55814 -0.21083,0.57754 0.0511,0.0316 1.48002,0.25223 2.45794,0.37952 2.90955,0.37873 4.56353,0.3796 5.69383,0.003 1.55795,-0.51908 3.33864,-0.61028 8.65717,-0.44338 1.9375,0.0608 1.87046,0.0508 1.79447,0.26661 -0.35717,1.01409 -0.74797,1.89019 -0.83494,1.87178 -0.25773,-0.0546 -2.87656,-0.12508 -4.70603,-0.12672 -2.88428,-0.003 -3.76129,0.11192 -5.04867,0.65919 -1.19602,0.50843 -3.62545,0.35782 -7.80758,-0.48402 -0.62146,-0.1251 -1.14659,-0.21611 -1.16696,-0.20224 -0.0382,0.026 -0.30662,0.48399 -0.30662,0.52319 0,0.0312 0.0708,0.0472 1.651,0.37468 4.27288,0.88538 6.50574,1.01965 7.71859,0.46415 0.4767,-0.21833 0.58426,-0.25725 1.00014,-0.36196 1.0757,-0.27082 2.0311,-0.33516 4.5316,-0.30514 1.70254,0.0204 3.88748,0.0941 3.92732,0.13243 0.01,0.01 -0.64793,1.4604 -0.85519,1.88618 -0.0722,0.14832 -0.0722,0.14832 -0.56675,0.11897 -4.30566,-0.2555 -6.51367,-0.0657 -8.00871,0.68842 -1.32868,0.6702 -3.48122,0.52129 -7.70467,-0.53303 -1.30095,-0.32476 -2.76033,-0.6648 -2.77048,-0.64552 -0.003,0.006 -0.0575,0.0917 -0.12053,0.19018 -0.19939,0.3113 -0.12457,0.35481 1.17651,0.68414 0.5588,0.14145 1.57798,0.401 2.26483,0.57678 3.81988,0.97756 6.01273,1.08695 7.29899,0.3641 1.13067,-0.63542 2.78457,-0.83668 5.99368,-0.72937 2.18269,0.073 2.05351,0.0485 1.89895,0.35936 -0.76785,1.54417 -0.92903,1.76544 -1.26233,1.73294 -2.61024,-0.25453 -5.52132,0.0992 -6.64683,0.80776 -0.69194,0.43558 -0.87578,0.4893 -1.78399,0.52131 -0.73043,0.0258 -1.32833,-0.0218 -2.27561,-0.18086 -1.21178,-0.20351 -1.94468,-0.38724 -4.06234,-1.01839 -0.58977,-0.17578 -1.07721,-0.31319 -1.08321,-0.30536 -0.0269,0.0351 -0.091,0.592 -0.0697,0.60487 0.0991,0.0598 3.06831,0.94544 3.61326,1.07779 2.98943,0.72602 4.59254,0.74198 5.6041,0.0558 1.03648,-0.70309 2.23674,-0.94583 4.62837,-0.93605 2.14198,0.009 2.06831,-0.0113 1.77124,0.48183 -1.03235,1.71352 -0.85868,1.57626 -1.99419,1.57619 -2.128,-1.3e-4 -3.35777,0.28967 -4.38021,1.03223 -0.68201,0.49531 -1.13722,0.61432 -2.19134,0.57288 -1.56178,-0.0614 -2.88786,-0.38556 -6.02751,-1.47342 -0.80053,-0.27737 -1.46056,-0.49889 -1.46674,-0.49226 -0.0207,0.0222 -0.14692,0.47123 -0.14692,0.52259 0,0.0615 -0.0443,0.0438 1.41817,0.56372 0.65193,0.23174 1.34726,0.48167 1.54516,0.5554 0.99096,0.36916 2.96486,0.86276 3.8735,0.96862 1.51131,0.17608 2.26405,0.0608 2.93248,-0.44924 1.07213,-0.81803 2.37566,-1.15334 4.48644,-1.15404 0.62513,-2.1e-4 0.62262,-0.0779 0.0254,0.78781 -0.90565,1.3128 -0.919,1.32856 -1.12641,1.32946 -1.19058,0.005 -2.58155,0.50154 -3.38183,1.20689 -1.17061,1.03174 -3.44532,0.7587 -7.65628,-0.91902 -1.29838,-0.51729 -2.68588,-1.05065 -2.73323,-1.05065 -0.0221,0 -0.15319,0.2893 -0.20429,0.45077 -0.0258,0.0814 0.004,0.10333 0.27962,0.20885 0.64821,0.24786 1.78224,0.7013 2.63673,1.05429 4.18627,1.72935 6.50082,2.00341 7.75917,0.91874 0.72928,-0.62863 1.61643,-1.00591 2.68603,-1.14232 0.33198,-0.0423 0.37826,-0.13752 -0.42801,0.88034 -0.91056,1.14953 -1.53033,1.85876 -1.7558,2.00924 -0.11993,0.08 -0.36753,0.28884 -0.55022,0.464 -1.20124,1.15172 -3.50829,0.84057 -7.66884,-1.03426 -1.42805,-0.64352 -2.71239,-1.19349 -3.21384,-1.37621 -0.21147,-0.0771 -0.41673,-0.15289 -0.45615,-0.16853 -0.0562,-0.0223 -0.0997,0.0271 -0.20185,0.22948 -0.15177,0.30066 -0.23209,0.23433 0.73918,0.6104 0.68392,0.26481 1.62346,0.67712 3.00566,1.31902 2.98242,1.38504 5.29232,2.00653 6.57062,1.76787 0.22062,-0.0412 0.22062,-0.0412 -0.0544,0.26609 -0.42192,0.47142 -1.86301,1.83957 -1.93764,1.83957 -0.51871,0 -2.54862,-0.79374 -4.40925,-1.7241 -3.03836,-1.51927 -4.84392,-2.27484 -4.97417,-2.08153 -0.20256,0.30062 -0.25792,0.42008 -0.20368,0.43955 0.0305,0.011 0.25335,0.0882 0.49515,0.1716 1.07651,0.37141 2.44528,0.99717 4.51742,2.0652 1.59496,0.82209 2.66334,1.28221 3.82401,1.64688 0.20357,0.064 0.14764,0.12275 -1.20398,1.26529 -0.41361,0.34962 -0.52983,0.31987 -2.03142,-0.52002 -2.99492,-1.67516 -4.64146,-2.44547 -6.18056,-2.89149 -0.51143,-0.14821 -0.52256,-0.14619 -0.71359,0.12894 -0.0897,0.12925 -0.1564,0.24009 -0.14816,0.24632 0.008,0.006 0.22453,0.0646 0.48064,0.12981 1.39563,0.35514 2.96001,1.05138 5.29167,2.3551 1.24751,0.69753 2.24945,1.25039 2.32755,1.28432 0.053,0.023 -0.11334,0.16572 -0.89992,0.7717 -0.6132,0.47241 -0.6132,0.47241 -0.87865,0.30993 -3.38834,-2.07389 -5.85956,-3.09262 -7.49165,-3.08834 -0.71264,0.002 -0.79882,0.56751 -0.0911,0.59765 1.63171,0.0695 3.65964,0.81208 5.94609,2.17734 1.12831,0.67373 1.3988,0.84508 1.37187,0.86905 -0.99483,0.88538 -1.50367,1.04161 -2.15906,0.6629 -2.74297,-1.58497 -4.33762,-1.99606 -6.69768,-1.72661 -1.28032,0.14617 -1.27202,0.14348 -1.79102,0.57982 -0.53084,0.44628 -0.53697,0.42441 0.0826,0.29439 3.34037,-0.70104 4.95111,-0.44736 7.98422,1.2575 0.65244,0.36672 0.6759,0.26047 -0.17682,0.80079 -0.94635,0.59964 -0.87306,0.57213 -1.15021,0.43165 -1.3522,-0.68541 -2.76025,-1.04366 -3.82691,-0.97368 -2.91917,0.1915 -5.05695,0.8382 -10.54343,3.18948 -3.00725,1.28878 -4.79655,1.46318 -7.25773,0.70738 -0.28267,-0.0868 -0.50961,-0.11934 -1.05833,-0.15173 -0.80086,-0.0473 -1.86899,-0.16976 -2.59649,-0.29775 -0.56959,-0.10019 -1.20861,-0.0745 -2.31926,0.0931 -2.95763,0.4465 -4.74652,0.63948 -7.02225,0.75754 -2.230005,0.11569 -3.162925,0.13462 -8.217975,0.16676 -2.97153,0.0189 -5.42054,0.0453 -5.44224,0.0587 -0.0217,0.0134 -0.22887,-0.0575 -0.46037,-0.15751 z m 28.725585,-2.03597 c 10.16212,-1.1612 19.21498,-9.7581 21.35315,-20.27766 0.21845,-1.07475 0.30792,-0.88709 -0.92743,-1.94517 -0.59695,-0.5113 -1.09398,-0.94355 -1.10449,-0.96057 -0.0105,-0.017 0.12011,-0.20905 0.29028,-0.42674 3.83011,-4.89974 5.21851,-10.99399 4.24036,-18.6127 -0.27402,-2.13431 -0.80561,-4.6148 -1.26575,-5.90616 -0.75744,-2.12575 -0.7713,-2.22414 -0.39254,-2.78642 2.54773,-3.78217 2.72927,-7.61591 0.51772,-10.93311 -1.03149,-1.54718 -2.83528,-1.64144 -7.95814,-0.41585 -0.97805,0.23399 -0.92147,0.17669 -0.62324,0.63115 2.58033,3.93206 3.23282,5.48407 4.30548,10.24103 0.13125,0.58208 0.33343,1.47743 0.44928,1.98967 0.20816,0.9204 0.63248,2.57739 0.90868,3.54848 2.17492,7.64673 1.1729,14.88324 -2.71023,19.57302 -7.21853,8.71805 -25.03577,9.49335 -36.104915,1.57107 -4.55265,-3.25837 -8.59326,-8.14592 -12.45177,-15.06174 -0.78345,-1.40422 -0.87321,-1.55426 -1.17036,-1.95632 -0.27737,-0.3753 -0.33682,-0.5752 -0.54475,-1.83168 -0.21767,-1.31537 -0.27535,-1.86039 -0.21736,-2.05395 0.18087,-0.6037 5.66171,-5.39672 9.23368,-8.0749 0.61701,-0.46262 1.74096,-1.30779 2.49767,-1.87815 7.956235,-5.99692 13.481425,-8.70801 22.599455,-11.08908 9.14865,-2.38906 19.37467,-2.73576 21.99989,-0.74588 0.29525,0.22379 0.31127,0.20886 0.19316,-0.17996 -0.0487,-0.16026 -0.0885,-0.31441 -0.0885,-0.34255 0,-0.0281 -0.13208,-0.42523 -0.29351,-0.88243 -0.99243,-2.81079 -1.6626,-3.868 -2.80353,-4.42262 -0.83531,-0.40605 -1.0275,-0.69189 -1.75524,-2.61048 -0.61994,-1.6344 -0.94593,-2.22084 -1.88648,-3.39369 -0.15562,-0.19405 -0.43426,-0.54887 -0.61921,-0.78851 -1.12286,-1.45486 -3.30999,-3.4742 -4.90152,-4.52549 -1.44147,-0.95217 -2.8388,-1.38051 -1.99843,-0.6126 1.01956,0.93163 1.37469,1.3368 1.64777,1.87994 0.22338,0.44427 0.22316,0.4442 -0.38775,-0.12381 -3.46807,-3.224565 -5.97959,-4.557555 -9.94677,-5.279245 -4.37701,-0.79625 -5.46607,0.0287 -2.87866,2.1806 0.90283,0.750865 1.397,1.377535 1.397,1.771595 0,0.22979 -0.18787,0.12576 -1.39454,-0.77214 -3.62919,-2.700545 -6.51956,-3.551325 -9.73961,-2.866835 -3.36735,0.7158 -3.37266,0.82466 -0.10535,2.15846 2.66985,1.089895 3.89244,1.902015 4.42935,2.942225 0.36095,0.69932 0.3336,0.69849 -1.11056,-0.0336 -2.07456,-1.05166 -3.87503,-1.68399 -6.19746,-2.17659 -1.661715,-0.35245 -4.482095,-0.0172 -6.892165,0.81932 -2.89357,1.00431 -6.61528,3.21034 -7.23868,4.2907 -0.64117,1.11116 -0.24086,1.52514 3.18767,3.29645 1.27814,0.66033 2.25803,1.46822 2.56473,2.11453 0.10845,0.22854 0.069,0.21599 -1.0724,-0.34126 -2.89137,-1.41162 -4.60726,-1.90695 -6.59349,-1.90333 -3.57777,0.007 -6.28662,2.30538 -5.55488,4.71413 0.13966,0.45974 0.0919,0.52633 -0.64599,0.90156 -4.71176,2.39589 -5.79441,8.46617 -3.37154,18.90392 0.40394,1.74018 0.45242,2.02225 0.45474,2.64584 0.004,1.18312 -0.23359,1.62319 -1.46204,2.70365 -0.47352,0.41647 -0.60858,0.77779 -0.64695,1.73076 -0.0261,0.64712 0.009,0.7879 0.11226,0.4445 0.47335,-1.58175 1.46008,-1.58514 3.08606,-0.0106 2.85773,2.76737 4.31008,5.65934 5.01865,9.99327 0.51988,3.17988 0.0927,4.74127 -1.3857,5.06483 -0.31259,0.0684 -0.31634,0.0916 -0.0352,0.21778 0.53843,0.24163 1.56098,0.21156 3.19663,-0.094 0.57633,-0.10767 0.9546,-1.33593 0.91027,-2.95571 -0.015,-0.54628 -0.015,-0.54628 0.30962,-0.12089 4.52102,5.92539 11.37528,11.21753 17.836435,13.77141 10.72055,4.23748 23.64494,2.4932 31.75,-4.28499 0.3533,-0.29546 0.3533,-0.26972 0,0.14705 -8.75522,10.32793 -26.35208,12.13961 -38.946675,4.00973 -0.39581,-0.25551 -0.74912,-0.48346 -0.78513,-0.50656 -0.15884,-0.10193 -1.46202,0.79384 -2.03423,1.39827 -3.24039,3.42286 0.17528,8.65337 9.837595,15.06455 0.78662,0.52194 1.50365,1.01533 1.5934,1.09641 0.10325,0.0933 0.3942,0.24649 0.79228,0.41719 3.59958,1.54353 8.23332,2.32756 11.52993,1.95087 z m -0.37128,-0.69947 c -5.5238,-0.69622 -7.7834,-7.44675 -3.78552,-11.3092 3.9928,-3.85754 10.65457,-1.33798 11.14126,4.21376 0.35911,4.09639 -3.28223,7.60887 -7.35574,7.09544 z m 2.02245,-0.61005 c 3.8652,-0.58268 5.42228,-5.08846 2.67399,-7.73782 -2.38191,-2.29617 -6.41227,-1.65654 -7.82856,1.24242 -1.62298,3.32202 1.35042,7.06888 5.15457,6.4954 z m -0.31767,-19.20109 c 2.82055,-0.13903 5.63083,-0.73918 8.31849,-1.77646 1.21113,-0.46743 1.14645,-0.42398 1.26253,-0.8481 0.13641,-0.49843 0.30421,-0.99442 0.8663,-2.5607 1.47847,-4.11974 1.56091,-4.41792 2.20626,-7.97983 1.24778,-6.88688 1.24389,-6.81213 0.72223,-13.85423 -0.0807,-1.08886 -0.14685,-2.18423 -0.14709,-2.43417 -0.001,-1.19872 -0.38475,-3.83645 -0.57862,-3.97868 -0.3198,-0.23463 -7.06164,0.70666 -10.72394,1.49726 -2.79002,0.60231 -12.57305,3.39556 -18.52155,5.28827 -1.06506,0.33889 -1.28747,0.51099 -1.825285,1.41242 -1.13981,1.91043 -1.19815,2.41607 -0.56706,4.9148 0.13819,0.54716 0.31918,1.31145 0.4022,1.69844 0.54391,2.53535 3.142315,8.76528 5.903995,14.15539 1.44719,2.82455 1.49955,2.89097 2.6975,3.42094 1.46204,0.64681 6.77577,1.2028 9.98404,1.04465 z m 0.36297,-4.32097 c -0.72092,-0.0467 -0.68596,-0.0275 -0.50231,-0.27545 0.14649,-0.19777 0.14649,-0.19777 1.18008,-0.19047 1.73216,0.0122 1.86615,-0.0245 3.64184,-0.99738 1.32201,-0.72435 1.65039,-0.92667 2.26401,-1.39486 0.4665,-0.35593 0.52456,-0.3053 0.26911,0.23469 -0.49506,1.04647 -1.16593,1.53702 -2.58021,1.88669 -0.24447,0.0604 -0.77787,0.22227 -1.18533,0.35963 -1.17171,0.39498 -1.73998,0.4644 -3.08719,0.37715 z m -4.00364,-2.51445 c -1.2057,-0.22388 -1.10734,-0.41464 0.23283,-0.45161 3.03261,-0.0836 3.53159,-0.18816 4.64016,-0.97186 0.96657,-0.6833 1.01358,-0.69199 1.45728,-0.26933 0.82647,0.78728 1.34449,0.70335 1.75894,-0.28499 0.19487,-0.46471 0.34896,-0.64733 0.5154,-0.61082 1.04018,0.22813 2.52225,0.0385 3.4351,-0.4395 0.40629,-0.21275 0.40629,-0.21275 0.17946,-0.0109 -0.62428,0.55552 -1.44152,1.03814 -1.88984,1.11603 -0.64644,0.1123 -0.94952,0.19801 -1.778,0.50281 -1.11565,0.41045 -1.42142,0.49166 -2.15911,0.57345 -0.32904,0.0365 -1.15402,0.18779 -1.85686,0.34056 -2.50019,0.54346 -3.6459,0.67133 -4.53536,0.50617 z m 2.54,-6.0706 c -1.28354,-0.5143 -1.397,-0.63837 -1.397,-1.5277 0,-0.46852 0.12638,-1.51893 0.1767,-1.46861 0.009,0.009 0.0723,0.22404 0.14018,0.47741 0.29806,1.11241 0.64501,1.76588 1.27285,2.39741 0.1794,0.18045 0.32372,0.3274 0.32072,0.32656 -0.003,-8.3e-4 -0.23405,-0.0931 -0.51345,-0.20507 z m 5.24278,-0.87472 c -0.057,-0.14849 0.35301,-0.65235 1.07859,-1.32551 1.02428,-0.95027 0.81266,-2.22717 -0.66691,-4.02424 -0.54107,-0.65718 -0.53624,-0.705 0.0513,-0.508 1.17235,0.3931 1.78792,1.4795 2.00085,3.53123 0.0807,0.77759 -0.25973,1.70156 -0.7178,1.94825 -0.20314,0.1094 -0.2251,0.0634 -0.11683,-0.2449 0.24378,-0.69415 -0.18721,-0.58899 -0.88082,0.21491 -0.26449,0.30654 -0.38308,0.39424 -0.60517,0.44751 -0.0865,0.0207 -0.12414,0.0104 -0.1432,-0.0393 z m 0.17828,-7.69303 c -0.64972,-0.6769 -0.95684,-1.60001 -1.05957,-3.18482 -0.0136,-0.20955 -0.0353,-0.48577 -0.0482,-0.61383 -0.0546,-0.5415 0.88782,1.0512 0.97695,1.651 0.0512,0.3444 0.15355,0.64511 0.47113,1.38386 0.3482,0.80999 0.35242,0.82771 0.21936,0.9209 -0.18054,0.12646 -0.32694,0.0854 -0.55968,-0.15711 z m -15.1479,-0.37339 c -0.68408,-0.10014 -0.7797,-0.30029 -0.35689,-0.74704 0.18188,-0.19219 -0.62811,-0.0847 -1.81453,0.24079 -0.38592,0.10588 -0.41424,0.0959 -0.20044,-0.0707 0.79593,-0.62011 1.49401,-0.91919 3.2722,-1.4019 3.38904,-0.92001 3.87114,-1.02221 4.44241,-0.94171 0.52077,0.0734 0.52083,0.0975 5.8e-4,0.23281 -0.59165,0.15386 -0.59247,0.12369 0.014,0.51454 0.91167,0.58755 1.06351,0.78924 0.85808,1.13979 -0.23067,0.3936 -0.39309,0.34031 -0.44653,-0.14651 -0.10156,-0.92513 -1.68017,-1.25383 -3.37006,-0.70172 -0.0308,0.0101 -0.0107,0.12108 0.0591,0.32589 0.4182,1.22799 -0.54256,1.83611 -2.45789,1.55573 z m -5.24424,-1.13992 c -0.26245,-0.13866 -0.59865,-0.58043 -0.91763,-1.20577 -0.20749,-0.40677 -0.25693,-0.35474 0.54288,-0.5713 1.70079,-0.4605 3.74667,-1.10935 4.84893,-1.53783 1.77029,-0.68816 3.79498,-0.83673 6.11175,-0.44847 0.99299,0.16641 1.1716,0.25246 0.99759,0.4806 -0.0647,0.0849 -0.14152,0.27563 -0.18326,0.45524 -0.10001,0.43031 -0.23198,0.45994 -1.87117,0.42009 -1.04254,-0.0253 -3.90538,0.55606 -5.00457,1.01635 -2.755,1.15369 -4.15763,1.58493 -4.52452,1.39109 z m 21.22174,-2.79647 c -0.51938,-0.10214 -0.74284,-0.46099 -0.578,-0.92821 0.0349,-0.099 0.0635,-0.19325 0.0635,-0.20948 0,-0.0162 -0.30956,0.031 -0.68791,0.10487 -0.98094,0.19161 -0.98323,0.18923 -0.4696,-0.49014 1.11843,-1.47931 1.74386,-2.09311 3.10485,-3.04712 2.0592,-1.44345 2.97694,-1.98846 3.34832,-1.98846 0.87889,0 3.19974,1.61793 2.97378,2.07312 -0.0573,0.1154 -0.628,0.61639 -0.78944,0.693 -0.38911,0.18465 -0.89691,0.008 -1.07115,-0.37255 -0.19467,-0.42523 -0.32892,-0.43299 -1.60943,-0.0931 -1.9557,0.51919 -3.39752,1.25632 -4.89802,2.50413 -0.39581,0.32915 -0.36094,0.32619 0.52768,-0.0447 4.69503,-1.95958 5.45937,-2.02286 5.56958,-0.4611 0.0612,0.86671 -0.0885,1.05193 -0.54206,0.67065 -0.46432,-0.39037 -1.15508,-0.53879 -2.08558,-0.44812 -0.51669,0.0503 -0.51787,0.0508 -0.44894,0.17963 0.0905,0.16909 -0.20704,1.13516 -0.45143,1.46578 -0.25361,0.34307 -1.21975,0.53656 -1.95615,0.39174 z m 6.41281,22.47089 c 4.93964,-3.30387 7.27259,-8.30607 6.99921,-15.00736 -0.0494,-1.21103 -0.23078,-3.09211 -0.30533,-3.16666 -0.01,-0.01 -0.0598,0.19663 -0.1113,0.45843 -0.30123,1.52963 -0.74805,2.32819 -2.50814,4.48251 -1.54429,1.8902 -2.02849,3.10512 -2.63804,6.61915 -0.25695,1.48128 -0.33503,1.84819 -0.53599,2.51883 -0.13262,0.44261 -1.32897,4.09557 -1.42454,4.34975 -0.0384,0.10208 0.0682,0.0503 0.52413,-0.25465 z M 77.785995,150.83168 c 0.16933,-0.0736 0.16933,-0.0736 -0.0535,-0.14802 -1.00343,-0.33523 -2.08502,-2.19244 -1.98361,-3.40609 0.0304,-0.36419 -0.0136,-0.36328 -0.19779,0.004 -0.84128,1.6781 0.74478,4.19743 2.23491,3.54999 z m 6.90456,-7.99685 c 0.0908,-0.0656 0.76518,-0.51023 1.49861,-0.98811 12.83941,-8.36588 18.428625,-11.38578 26.906415,-14.53774 7.28832,-2.70974 12.41512,-3.97539 20.57042,-5.07822 2.59076,-0.35035 4.45886,-0.30159 5.87578,0.15336 0.65139,0.20916 0.65274,0.20526 0.51607,-1.49743 -0.0953,-1.18757 -0.0867,-1.15001 -0.30838,-1.34513 -1.40163,-1.23377 -6.96833,-1.49152 -14.08447,-0.65216 -5.49192,0.64778 -12.4114,2.59981 -17.68319,4.98855 -3.6852,1.66983 -8.111645,4.28836 -12.458145,7.36981 -4.86782,3.45103 -8.05233,5.88384 -9.97078,7.6172 -1.96131,1.77208 -1.96939,1.79268 -1.50046,3.82561 0.0636,0.27565 0.36261,0.34325 0.63813,0.14426 z m 19.659615,-5.48196 c 6.44425,-2.04179 11.40103,-3.52274 13.83934,-4.13481 2.85846,-0.71755 6.96687,-1.3918 11.22199,-1.84169 1.12116,-0.11855 1.078,-0.0874 0.91374,-0.65999 -0.29239,-1.01932 -0.35961,-1.05528 -2.13592,-1.14257 -2.73426,-0.13436 -6.3444,0.2237 -9.43223,0.93552 -6.91558,1.59419 -12.09822,3.70641 -15.62853,6.3695 -0.69812,0.52662 -1.53694,1.2462 -1.50776,1.29341 0.0258,0.0417 -0.24233,0.12218 2.72937,-0.81937 z M 131.634,97.299775 c -2.74383,-0.33558 -4.83663,-1.23717 -9.94834,-4.28583 -1.40783,-0.83964 -1.84732,-1.05134 -2.61916,-1.26161 -1.4979,-0.40807 -2.84137,-0.28395 -4.47167,0.41315 -2.37481,1.01545 -3.85311,1.14897 -6.69936,0.60512 -4.15398,-0.79373 -7.35941,-0.97596 -14.234475,-0.80922 -5.54835,0.13456 -5.48304,0.13499 -6.58283,-0.0443 -0.46388,-0.0756 -1.519,-0.308 -1.6001,-0.35239 -0.065,-0.0356 1.33923,-0.72506 2.4891,-1.22209 0.78316,-0.33853 0.78316,-0.33853 2.18016,-0.3648 0.76835,-0.0145 2.54,-0.0568 3.937,-0.0941 6.148965,-0.1641 9.685775,0.0478 13.574015,0.81313 3.06047,0.60243 4.5321,0.48179 6.91533,-0.56689 1.77468,-0.7809 3.16121,-0.88857 4.70804,-0.36559 0.69358,0.2345 1.18004,0.49751 2.93312,1.58586 4.70768,2.92263 7.36382,4.02899 9.92782,4.13526 1.30121,0.0539 2.45567,-0.44271 4.07372,-1.75249 0.39138,-0.31681 0.39138,-0.31681 0.889,-0.0109 0.2737,0.16822 0.54989,0.33668 0.61378,0.37434 0.15785,0.0931 0.16818,0.0756 -0.29607,0.49963 -2.42322,2.21307 -3.95427,2.92812 -5.78908,2.70372 z m -0.16788,-2.45903 c -1.76877,-0.25216 -3.31005,-0.77001 -4.98211,-1.6739 -1.59181,-0.86051 -3.3091,-1.86419 -4.88301,-2.8539 -2.78236,-1.74962 -4.53018,-1.96281 -7.00951,-0.855 -2.40312,1.07376 -3.83791,1.20566 -6.76999,0.6224 -3.39406,-0.67517 -7.46091,-1.00287 -11.239505,-0.90565 -2.89122,0.0744 -6.00712,0.14021 -6.02015,0.12718 -0.0456,-0.0457 2.64348,-0.94735 3.91363,-1.31228 2.79201,-0.8022 3.35092,-0.90403 4.75235,-0.86589 3.593015,0.0978 5.645615,0.3233 8.748005,0.96114 2.75868,0.56718 4.27372,0.41379 6.61011,-0.66923 2.52897,-1.17229 4.11851,-0.95276 7.13421,0.98531 4.64658,2.98618 6.66892,4.00195 8.81318,4.42663 1.86014,0.36841 2.79013,0.28233 3.88547,-0.35964 0.29661,-0.17383 0.14745,-0.21929 1.16696,0.35565 0.5651,0.31867 0.5651,0.31867 0.46567,0.397 -1.83559,1.44587 -2.97757,1.84938 -4.58531,1.62018 z m 0.23138,-2.41746 c -1.89638,-0.23055 -3.51458,-0.80506 -5.58076,-1.98137 -1.73659,-0.98867 -5.39388,-3.27968 -5.24003,-3.28248 0.25898,-0.005 3.59406,0.90991 5.02112,1.37702 3.2211,1.05434 8.44345,3.34324 8.07729,3.54019 -0.5349,0.28771 -1.52406,0.43826 -2.27762,0.34664 z m -21.75933,-4.67815 c -0.64648,-0.0335 -0.85727,-0.067 -2.10375,-0.33429 -2.04177,-0.43778 -4.26243,-0.74355 -6.01573,-0.82832 -0.77224,-0.0373 -0.72904,-0.0656 0.30898,-0.20231 4.44081,-0.58478 8.7839,-0.63291 13.18294,-0.14611 0.44061,0.0488 0.44061,0.0488 0.16934,0.14041 -0.14921,0.0504 -0.58561,0.23564 -0.96978,0.41161 -1.76034,0.80631 -2.9014,1.04565 -4.572,0.95901 z"
       id="path5"
       inkscape:export-filename="..\..\YN logo black.svg"
       inkscape:export-xdpi="96"
       inkscape:export-ydpi="96" /></g></svg>
